<svg id="Calque_1" data-name="Calque 1" version="1.0" xmlns="http://www.w3.org/2000/svg" width="64.000000pt" height="64.000000pt" viewBox="0 0 64.000000 64.000000" preserveAspectRatio="xMidYMid meet"><g transform="translate(0.000000,64.000000) scale(0.100000,-0.100000)" fill="#000000" stroke="none"><path d="M220 604 c-90 -25 -146 -69 -188 -149 -37 -69 -38 -195 -4 -270 49 -107 124 -156 248 -163 73 -4 88 -1 140 22 60 28 104 61 104 80 0 5 -9 20 -21 32 l-21 22 -35 -24 c-69 -47 -177 -46 -245 2 -123 87 -110 267 23 334 46 24 144 27 192 6 39 -17 92 -71 106 -109 6 -16 11 -101 11 -193 l0 -164 55 0 55 0 0 285 0 285 -55 0 -55 0 0 -35 c0 -38 -10 -44 -31 -19 -46 56 -184 85 -279 58z"/></g></svg>